<svg width="510" height="119" viewBox="0 0 510 119" fill="none" xmlns="http://www.w3.org/2000/svg">
<path d="M91.0139 88.3241C87.2525 87.245 87.0404 84.485 87.9236 81.875C89.6163 76.8726 91.6905 71.9927 93.7596 67.127C94.8234 64.6255 95.58 62.3897 92.5833 60.9068C86.3028 64.6307 80.0172 68.2679 73.856 72.1049C72.9015 72.6994 72.145 74.1387 71.9254 75.3056C69.3364 89.0629 60.8905 98.537 49.5116 105.699C39.784 111.822 29.5872 117.237 17.7841 117.541C14.5899 117.623 10.0446 116.111 8.51847 113.769C7.32833 111.942 9.07976 107.113 10.9144 104.657C13.6391 101.009 20.0813 96.2022 24.0072 93.9425C37.9513 85.9165 49.299 79.7805 63.4348 72.0872C64.2974 71.6177 65.1362 71.1045 66.3415 70.4054C61.0531 62.2831 53.0141 60.9856 44.5572 60.6666C34.3113 60.2802 26.8467 63.8003 22.9547 74.2028C19.9491 82.2359 15.6951 89.8129 11.7764 97.4803C11.2441 98.5218 9.62448 100.675 8.21337 99.5998C6.80227 98.5244 6.56541 94.8588 7.35802 93.3221C11.6829 84.9376 16.6222 76.8726 21.1279 68.577C23.466 64.2723 25.7643 59.7569 28.0172 55.4439C33.9406 44.1039 39.7198 32.6883 45.4932 21.2706C45.9225 20.4216 45.925 19.3568 46.2868 17.62C32.0356 19.9098 10.799 32.0271 8.74823 34.6395C6.6975 37.2518 11.7239 37.5143 12.1004 38.4987C12.4768 39.4831 12.4143 41.7114 10.9144 41.4993C9.41453 41.2871 5.93307 38.5286 5.01124 36.8052C4.24913 35.3803 5.40992 31.5261 6.90447 30.5332C14.0613 25.7786 21.2396 20.6898 29.128 17.4887C40.9789 12.6797 53.4732 9.52178 66.5543 10.9585C69.3309 11.2635 72.1683 11.809 74.7666 12.7981C83.4033 16.0859 85.8214 23.1937 79.396 29.8405C73.0287 36.4272 65.271 41.7626 57.7262 47.0842C53.0399 50.3896 47.6152 52.6483 41.9124 55.7034C45.2358 56.113 48.0289 56.4745 50.8264 56.7987C58.0742 57.6388 64.1211 60.5743 68.8794 66.3108C69.7454 67.3547 72.6112 67.9725 73.7641 67.3422C80.3801 63.7257 91.0139 59.7701 91.4671 53.4957C91.9825 52.4959 94.4452 51.3109 95.7357 51.8997C97.0262 52.4885 96.3398 54.3987 96.5695 55.6614C96.7814 56.826 96.4536 58.5089 97.1243 59.0996C100.59 62.1513 99.2836 65.2405 97.7368 68.5341C96.448 71.2782 90.4732 80.3791 93.2254 82.1817C102.622 76.7476 110.031 66.3645 117.794 58.8111C118.905 57.7299 120.89 55.7249 122.278 56.7503C123.666 57.7757 122.887 60.9608 121.975 62.0356C117.034 67.8636 110.757 78.5602 111.964 81.8251C113.171 85.0899 119.092 79.3495 123.109 74.9638C128.468 69.1152 134.306 63.6928 140.12 58.2822C142.582 55.9913 145.849 54.8127 148.57 57.6234C151.03 60.1635 150.824 63.1935 148.498 66.1654C146.563 68.6389 144.927 71.3852 143.45 74.1654C142.169 76.5768 139.834 81.3066 142.719 81.2989C145.604 81.2912 147.553 78.1318 149.458 76.0742C153.861 71.3187 157.855 66.1863 162.218 61.391C163.274 60.2307 165.047 58.2134 166.595 59.0111C168.142 59.8087 167.848 62.6211 167.616 64.3085C167.317 66.4864 166.298 69.6851 165 73.1021C167.136 71.6483 164.565 73.6559 169.341 67.8458C174.117 62.0356 178.389 57.4451 181.76 59.7701C183.128 60.7137 182.604 63.12 182.378 64.7022C181.866 68.2805 180.45 71.7792 180.302 75.3476C180.097 80.3036 182.407 82.2162 187.371 82.1214C195.65 81.9634 202.116 77.573 208.438 72.9166C210.119 71.6786 212.678 69.5514 214.301 70.9582C215.923 72.365 212.311 74.8649 209.512 76.5309C203.715 79.9816 197.74 83.44 191.394 85.5869C183.173 88.3681 176 84.4993 176 75.3476C176 71.9166 179.899 66.3567 176 67.127C172.101 67.8974 167.694 77.1778 164.15 80.53C162.918 81.6952 161.56 85.9778 159.28 82.7833C157 79.5889 161.933 72.3721 161.205 69.8621C158.424 72.8387 152.684 78.8551 149.854 81.7837C144.028 87.811 140.674 87.4704 136.458 80.5007C126.656 91.7135 125.54 87.9782 120.878 84.0899C116.061 85.0357 113.881 88.914 109.322 87.0484C104.762 85.1827 110.288 73.5939 109.926 73.1021C109.564 72.6104 97.9206 85.2976 91.0139 88.3241ZM66.7422 78.872C66.7422 77.827 68.4788 75.3056 66.3415 75.3056C64.2043 75.3056 42.0676 87.1637 30.5087 93.9425C24.6988 97.3498 19.5657 102.007 14.4887 106.508C13.0312 107.8 12.0155 110.586 13 112.499C13.9845 114.413 16.385 114.308 18.1703 113.813C25.3311 111.832 32.672 109.999 39.334 106.826C51.452 101.054 61.413 92.6596 66.7422 78.872ZM37.1828 52.9391C43.5304 49.7058 50.3147 47.1017 56.1135 43.0775C63.127 38.2103 69.4831 32.3305 75.7457 26.484C77.7955 24.5705 79.3567 21.4177 76.5027 18.5067C73.3228 15.2631 59.2295 13.5343 55.5493 15.9585C54.7497 16.4852 53.9939 17.2584 53.5332 18.0923C47.5252 28.9683 41.5529 39.8643 35.6776 50.8122C35.4124 51.3065 36.1558 52.3422 37.1828 52.9391ZM144.281 62.9078C140.907 59.518 123.543 80.6439 126.522 83.1154C129.192 85.3312 146.281 64.9166 144.281 62.9078Z" fill="white"/>
<path d="M388.877 69.8737C385.252 71.2104 382.487 73.2351 382.07 77.5139C381.66 81.7273 380.284 85.2686 375.468 86.3645C370.793 87.4285 367.944 84.71 365.134 81.7779C364.703 81.3284 364.43 80.7281 364.086 80.2012C352.972 87.1658 347.799 87.6561 347.614 76.0736C343.785 79.2887 340.188 83.0008 335.94 85.6827C331.623 88.4085 329.837 87.3556 327.686 82.4412C318.965 87.2066 318.538 87.1286 314.466 79.7965C312.222 81.5521 310.204 83.6744 307.738 84.8821C305.879 85.7926 302.598 86.5096 301.485 85.5438C300.107 84.3485 299.357 80.9891 300.001 79.1473C303.158 70.1237 308.933 62.7937 316.928 57.6132C318.979 56.2845 323.055 55.9035 324.998 57.0776C328.228 59.0291 327.529 62.5543 325.657 65.8783C323.127 70.3675 317.673 77.8036 319.491 80.1852C321.308 82.5669 328.329 75.7187 331.428 72.0604C335.075 67.7545 338.678 63.4074 342.421 59.1859C345.868 55.2987 349.883 53.025 354.706 55.8037C359.911 45.947 364.797 36.3466 370.082 26.9714C371.16 25.0596 374.835 22.391 375.443 22.8065C378.671 25.0137 376.954 28.0137 375.429 30.6627C370.208 39.736 364.666 48.6403 359.823 57.9104C356.931 63.4463 354.992 69.5015 352.915 75.4254C352.47 76.6956 353.282 78.4063 353.515 79.9141C354.898 79.5898 356.478 79.5898 357.634 78.8903C367.734 72.7818 374.974 64.039 380.412 53.6919C381.428 51.7589 383.367 50.2103 385.08 50.7262C386.792 51.2422 385.827 53.4155 385.582 54.6361C384.779 58.6439 383.684 62.5933 382.327 68.0754C389.556 64.1678 394.571 60.2822 397.68 54.1911C402.131 45.4688 406.554 36.7318 411.116 28.0675C412.424 25.5822 413.841 22.9886 415.817 21.0739C417.337 19.6015 420.007 17.0401 421.864 18.1914C423.721 19.3427 422.538 22.8848 421.597 24.4767C415.1 35.4722 408.113 46.178 401.581 57.1538C399.616 60.4554 390.456 76.7187 393 76.9245C395.545 77.1304 397.432 73.4981 400.5 70.2853C403.568 67.0726 407.395 61.5217 411.926 57.134C413.02 56.0744 415.136 54.4941 416.568 55.3588C418 56.2235 417.509 58.7757 417.186 60.3184C416.238 64.8577 414.832 69.2995 413.703 73.8038C412.992 76.6385 411.474 80.3484 415.223 81.4233C416.588 81.815 419.941 78.4183 421.016 76.1111C424.669 68.2714 429.48 61.4555 436.229 56.0561C439.245 53.6433 443.465 53.2733 446.549 56.1792C447.537 57.1098 447.383 60.1516 446.687 61.8039C444.913 66.0163 436.5 75.1565 438.5 78.5002C440.5 81.844 447.631 73.9701 450.257 70.7255C453.26 67.0146 455.204 62.4636 458.004 58.5619C458.874 57.3491 461.109 55.4497 462.603 56.3507C464.098 57.2518 463.611 60.2395 462.924 61.568C460.409 66.4327 453.776 75.1439 455.368 76.4059C456.96 77.6678 467.759 69.7414 471.625 63.657C472.983 61.5195 474.266 57.8939 477.06 58.9709C479.854 60.0478 476.856 63.6689 476.05 66.0613C474.841 69.646 473.543 73.2473 472.86 76.9481C472.279 80.094 474.058 81.5772 477.355 80.9515C484.065 79.6782 494.828 67.7761 494.444 61.1521C494.332 59.2164 493.983 57.9056 492.5 56.0002C491.449 54.6495 485.749 54.6441 487.125 51.3222C488.5 48.0002 491.29 49.9286 492.782 50.5819C497.872 52.8117 500.336 58.4848 498.806 63.9697C496.091 73.7082 489.83 80.6092 480.682 84.6458C473.542 87.7966 468.72 83.8878 467.962 74.5743C465.116 76.5888 462.503 78.7754 459.587 80.4271C454.505 83.306 453.221 82.803 450.324 77.6678C438.051 84.9121 437.421 84.8955 434.758 76.9245C433.558 77.8751 426.5 84.2868 425 80.4271C423.5 76.5674 420.02 83.7532 414.31 85.2242C409.647 86.4256 406.83 80.6081 408.546 74.6551C409.297 72.0496 413.557 63.1364 411.116 64.0002C408.674 64.864 405.07 70.7305 401.581 74.6551C399.706 76.7645 395.982 80.7487 393.872 82.5957C392.879 83.4645 390.798 84.2965 389.943 83.823C388.763 83.1703 387.575 81.2351 387.634 79.9045C387.764 76.975 388.674 74.0802 389.547 70.6067C389.789 69.7899 389.75 69.5376 389.71 69.2853C389.432 69.4815 389.154 69.6776 388.877 69.8737ZM372.729 73.1478C376.794 72.1307 380.244 70.6486 378.632 64.9547C376.334 67.4542 372.519 70.2193 371.504 73.5253C371.662 73.3417 371.82 73.1581 372.729 73.1478ZM352.915 59.1859C349.977 55.13 329.56 79.4915 332.5 81.7779C335.44 84.0643 355.854 63.2419 352.915 59.1859ZM321.5 60.5383C317.733 57.6849 301.627 79.5355 304 81.7779C306.373 84.0203 325.777 63.7779 321.5 60.5383ZM427 76.4059C429.338 78.2926 446.838 62.7184 442.5 58.5619C438.162 54.4054 424.663 74.5192 427 76.4059ZM377.287 78.8903C377.99 77.1636 377.492 77.0796 377.287 76.5515C374.726 77.6637 372.166 78.776 368.705 80.2794C373.215 82.8752 376.584 80.617 377.287 78.8903Z" fill="white"/>
<path d="M237.402 113.083C229.222 115.958 221.326 117.895 212.522 116.809C203.329 112.913 202.111 107.292 208.846 100.385C211.723 97.4339 215.393 95.2707 218.418 92.4452C223.5 88.5005 223.5 88.5005 225.776 84.1906C229.735 77.6719 233.247 70.8699 236.692 64.0577C243.013 51.5606 249.398 39.2674 256.294 26.7878C256.981 25.546 258.755 23.4783 260.237 24.1035C261.719 24.7286 261.602 27.6035 261.056 28.7842C258.827 33.5969 256.088 38.1716 253.584 42.8593C252.688 44.5376 251.926 46.2875 250.519 49.2207C261.81 42.7744 271.643 36.6837 278.625 27.0891C283.671 20.1547 281.485 13.7949 273.002 13.2127C265.085 12.6695 256.631 13.4049 249.08 15.7375C239.522 18.6902 230.383 23.3613 221.571 28.2138C217.022 30.7188 215.596 35.5753 211.249 36.5005C206.903 37.4257 206.326 34.4186 209.587 31.5509C213.789 27.8557 218.243 24.1794 223.177 21.6379C235.137 15.4776 247.38 9.45538 261.072 8.65871C267.032 8.31193 274.277 8.69343 280 10.5005C286.946 12.6937 288.549 19.8183 284.751 26.0295C281.541 31.2785 277.002 35.9279 272.325 40.0101C267.13 44.5444 261.111 48.1351 254.749 52.6328C265.386 54.137 273.612 57.9879 277.558 67.896C283.998 66.9908 287.335 62.9516 289.357 57.5397C290.807 53.6565 293.5 53.5005 294.859 56.7852C299.902 62.0953 300.047 67.3966 296.279 73.3988C294.629 76.026 291.671 79.6197 292.114 82.2978C292.628 85.4027 297.372 82.0926 297.726 83.7081C298.081 85.3236 292.541 87.0484 291.497 86.4347C290.063 85.5922 288.433 83.9176 289 81.2144C289.567 78.5112 293.018 73.0464 293.969 70.0842C294.921 67.122 298.183 64.0577 292.969 61.0005C290.804 59.7306 290.242 68.6109 279.214 71.5579C277.558 72.0005 278.211 72.8738 278.139 73.5972C276.626 88.6615 266.349 97.2664 254.788 104.615C249.502 107.975 243.487 110.191 237.402 113.083ZM211.249 103.941C207.491 109.873 208.257 111.601 215.152 112.503C216.621 112.695 218.159 112.752 219.621 112.551C234.958 110.444 248.793 104.702 260.575 94.6263C266.971 89.1569 272.505 82.8612 273.703 73.0292C258.372 77.3936 244.099 82.4417 230.616 89.6553C227.726 91.2015 227 90.0005 225 94.5005C223.958 96.8444 221.5 102 219 101C216.5 100 222.255 93.3715 217.917 97.5183C216.288 99.0756 214.024 101.24 211.249 103.941ZM241.949 80.4605C252.472 76.6518 262.995 72.8432 273.519 69.034C270.519 62.3591 266.096 58.9814 258.509 57.5511C248.695 55.7009 246.518 56.6555 241.435 65.2657C238.658 69.9694 235.974 74.7279 233.281 79.4807C232.309 81.1972 231.434 82.969 229.982 85.7272C234.626 83.686 237.937 82.2307 241.949 80.4605Z" fill="white"/>
<path d="M131.693 40.1798C131.071 41.7325 130 42.5006 128.332 40.9686C126.663 39.4366 126.5 38.0006 127.5 35.9338C128.5 33.867 131.235 35.1138 131.693 35.9339C132.151 36.754 132.314 38.6271 131.693 40.1798Z" fill="white"/>
</svg>
