<svg width="62" height="62" viewBox="0 0 62 62" fill="none" xmlns="http://www.w3.org/2000/svg">
<rect width="62" height="62" rx="31" fill="#FBF8F5"/>
<path d="M49.1182 42.2015C49.9857 41.0543 51.6395 40.6472 52.9665 41.3383C54.3054 42.0357 54.9623 43.7618 53.9414 45.1411C51.6028 48.3 48.4931 50.9281 44.8551 52.8227C40.7027 54.9851 36.0006 56.12 31.22 56.12C26.4394 56.12 21.7373 54.9851 17.5849 52.8227C13.9469 50.9281 10.8372 48.3 8.49864 45.1411C7.47772 43.7618 8.13456 42.0357 9.47346 41.3383C10.8005 40.6472 12.4543 41.0543 13.3218 42.2015C15.137 44.6023 17.5396 46.6203 20.3632 48.0908C23.6573 49.8062 27.4022 50.7123 31.22 50.7123C35.0378 50.7123 38.7827 49.8062 42.0768 48.0908C44.9004 46.6203 47.3029 44.6023 49.1182 42.2015Z" fill="#4F836D"/>
<path d="M51.8965 43.4021C51.59 43.2425 51.1649 43.3473 50.9693 43.6054C48.9369 46.2935 46.2634 48.5321 43.148 50.1546C39.5147 52.0468 35.4012 53.0385 31.22 53.0385C27.0388 53.0385 22.9252 52.0468 19.292 50.1546C16.1766 48.5321 13.5031 46.2935 11.4707 43.6054C11.2751 43.3473 10.85 43.2425 10.5435 43.4021C10.3997 43.4772 10.3471 43.5719 10.3327 43.6225C10.3254 43.648 10.3256 43.6677 10.3281 43.6827C10.3305 43.6963 10.3378 43.7209 10.3633 43.7553C12.4825 46.6179 15.315 49.0195 18.655 50.7589C22.4684 52.7449 26.8025 53.7938 31.22 53.7938C35.6375 53.7938 39.9716 52.7449 43.785 50.7589C47.125 49.0195 49.9575 46.6179 52.0767 43.7553C52.1022 43.7209 52.1095 43.6963 52.1119 43.6827M49.1182 42.2015C49.9857 41.0543 51.6395 40.6472 52.9665 41.3383C54.3054 42.0357 54.9623 43.7618 53.9414 45.1411C51.6028 48.3 48.4931 50.9281 44.8551 52.8227C40.7027 54.9851 36.0006 56.12 31.22 56.12C26.4394 56.12 21.7373 54.9851 17.5849 52.8227C13.9469 50.9281 10.8372 48.3 8.49864 45.1411C7.47772 43.7618 8.13456 42.0357 9.47346 41.3383C10.8005 40.6472 12.4543 41.0543 13.3218 42.2015C15.137 44.6023 17.5396 46.6203 20.3632 48.0908C23.6573 49.8062 27.4022 50.7123 31.22 50.7123C35.0378 50.7123 38.7827 49.8062 42.0768 48.0908C44.9004 46.6203 47.3029 44.6023 49.1182 42.2015Z" stroke="#4F836D" stroke-width="2.4"/>
<path d="M30.8536 43.804C27.3592 43.804 24.156 42.9752 21.244 41.3176C18.3768 39.66 16.092 37.3976 14.3896 34.5304C12.6872 31.6632 11.836 28.4152 11.836 24.7864C11.836 21.1128 12.6872 17.8648 14.3896 15.0424C16.092 12.1752 18.3768 9.9352 21.244 8.3224C24.1112 6.6648 27.3144 5.836 30.8536 5.836C34.4376 5.836 37.6408 6.6648 40.4632 8.3224C43.3304 9.9352 45.5928 12.1752 47.2504 15.0424C48.9528 17.8648 49.804 21.1128 49.804 24.7864C49.804 28.46 48.9528 31.7304 47.2504 34.5976C45.548 37.4648 43.2632 39.7272 40.396 41.3848C37.5288 42.9976 34.348 43.804 30.8536 43.804ZM30.8536 36.748C33.004 36.748 34.908 36.2328 36.5656 35.2024C38.2232 34.172 39.5224 32.7608 40.4632 30.9688C41.4488 29.132 41.9416 27.0712 41.9416 24.7864C41.9416 22.5016 41.4488 20.4632 40.4632 18.6712C39.5224 16.8792 38.2232 15.468 36.5656 14.4376C34.908 13.4072 33.004 12.892 30.8536 12.892C28.748 12.892 26.844 13.4072 25.1416 14.4376C23.484 15.468 22.1624 16.8792 21.1768 18.6712C20.236 20.4632 19.7656 22.5016 19.7656 24.7864C19.7656 27.0712 20.236 29.132 21.1768 30.9688C22.1624 32.7608 23.484 34.172 25.1416 35.2024C26.844 36.2328 28.748 36.748 30.8536 36.748Z" fill="#313E4A"/>
</svg>
