<svg width="119" height="119" viewBox="0 0 119 119" fill="none" xmlns="http://www.w3.org/2000/svg">
<rect width="119" height="119" rx="24" fill="#D8875E"/>
<path d="M44.9219 21.1133C54.5196 17.2185 64.7804 14.6008 75.5908 15.7881C77.886 16.0402 80.2918 16.4965 82.5303 17.3486C86.239 18.7605 88.9242 21.1126 89.8076 24.1396C90.7085 27.2267 89.5962 30.5137 86.7793 33.4277C81.5665 38.8202 75.2285 43.174 69.2295 47.4053C66.6408 49.2311 63.7187 50.7027 60.748 52.1865C61.5151 52.2807 62.2655 52.3747 63.0176 52.4619C69.1552 53.1733 74.3613 55.6847 78.4414 60.6035C78.4218 60.5799 78.4811 60.6524 78.7061 60.7598C78.9114 60.8577 79.1773 60.9472 79.4668 61.0088C79.757 61.0705 80.0297 61.0948 80.2441 61.0879C80.4301 61.0819 80.5027 61.0553 80.498 61.0586C81.8446 60.3236 83.4053 59.5637 84.9131 58.8018C86.4537 58.0233 87.9727 57.2259 89.3271 56.375C90.6886 55.5197 91.8173 54.6505 92.6143 53.7539C93.4049 52.8644 93.8018 52.0253 93.8613 51.2012L93.8838 50.8945L94.0244 50.6221C94.2747 50.1365 94.6746 49.7644 95.0195 49.5059C95.3882 49.2295 95.818 48.9901 96.2598 48.8076C96.6998 48.6259 97.1969 48.4818 97.7051 48.4287C98.1385 48.3834 98.66 48.3967 99.1748 48.5791L99.3945 48.668L99.6162 48.7764C100.122 49.0449 100.55 49.412 100.866 49.8809C101.226 50.4142 101.387 51.0006 101.421 51.5654C101.486 52.6467 101.097 53.7256 100.64 54.5986C100.167 55.5018 99.5307 56.3564 98.8936 57.0391C98.333 57.6396 97.6482 58.2343 96.9678 58.5557C91.9411 61.5357 86.9566 64.4212 82.0615 67.4697C81.9629 67.5311 81.7722 67.7132 81.5732 68.0566C81.3831 68.385 81.2523 68.747 81.1982 69.0342C79.0269 80.5722 71.9273 88.4657 62.5918 94.3418C54.781 99.2582 46.3261 103.79 36.4492 104.044C34.9489 104.082 33.2056 103.753 31.668 103.165C30.1724 102.593 28.6066 101.675 27.7412 100.347C27.2603 99.6084 27.1654 98.7303 27.1904 97.9971C27.2165 97.2319 27.3807 96.4188 27.6113 95.6436C28.0698 94.1026 28.8602 92.4815 29.7129 91.3398C30.9201 89.7237 32.875 87.9372 34.8584 86.3613C36.86 84.771 38.9953 83.3133 40.6406 82.3662C51.8145 75.9347 60.9104 71.0167 72.2148 64.8643C72.4988 64.7097 72.7728 64.5508 73.0723 64.376C69.2976 59.6681 63.9456 58.7778 57.7725 58.5449C53.8472 58.3969 50.6188 59.005 48.041 60.5176C45.4874 62.0161 43.4131 64.4957 41.9521 68.4004C39.508 74.9329 36.0385 81.118 32.9404 87.1797C32.6675 87.7136 32.122 88.5393 31.3975 89.1367C31.0323 89.4378 30.5215 89.7642 29.8916 89.8818C29.1977 90.0113 28.4721 89.8639 27.8447 89.3857C27.2668 88.9453 26.9109 88.3281 26.6895 87.7764C26.4609 87.207 26.3256 86.5827 26.2598 85.9834C26.1354 84.8513 26.2278 83.4702 26.7373 82.4824C30.1886 75.7915 34.2318 69.1679 37.7676 62.6582C39.6305 59.2284 41.4551 55.6427 43.2676 52.1729C48.0009 43.111 52.6202 33.9873 57.2393 24.8525C57.2779 24.7762 57.313 24.6736 57.3535 24.501C52.276 25.6638 46.32 28.127 41.2041 30.6631C38.3012 32.1022 35.7072 33.5454 33.749 34.75C32.7688 35.353 31.9608 35.8887 31.3584 36.3271C31.0572 36.5464 30.8186 36.7333 30.6406 36.8857C30.6117 36.9105 30.5861 36.9351 30.5615 36.957C30.888 37.1085 31.1885 37.2095 31.6611 37.4053C31.874 37.4935 32.1456 37.6134 32.3926 37.7686C32.596 37.8964 33.0464 38.205 33.2646 38.7754C33.5207 39.445 33.6076 40.3956 33.4111 41.2188C33.3102 41.6417 33.0969 42.1906 32.6289 42.6221C32.104 43.1061 31.4154 43.2977 30.7051 43.1973C30.1138 43.1136 29.5119 42.8251 29.0303 42.5498C28.5092 42.252 27.9622 41.8708 27.4473 41.4619C26.4681 40.6843 25.3881 39.6324 24.8701 38.6641C24.5326 38.0331 24.4801 37.31 24.5049 36.7383C24.5313 36.1281 24.6557 35.4857 24.8369 34.8848C25.0186 34.2825 25.2723 33.6747 25.5869 33.1387C25.8885 32.6248 26.3102 32.066 26.877 31.6895C32.5376 27.9288 38.4349 23.7457 44.9219 21.1133ZM74.2402 70.6641C73.6458 70.9131 72.8909 71.2544 72.002 71.6777C69.9827 72.6395 67.3392 73.9851 64.4482 75.5059C58.6679 78.5467 51.9496 82.2623 47.3496 84.96C42.8547 87.5961 38.8652 91.2102 34.7695 94.8408C34.4298 95.142 34.0723 95.6973 33.8887 96.3408C33.7039 96.9887 33.7536 97.5072 33.917 97.8252C34.0383 98.0609 34.2324 98.2119 34.6484 98.2783C35.1125 98.3524 35.7161 98.2841 36.3193 98.1172C42.1105 96.5145 47.8248 95.087 53.0059 92.6191C62.4063 88.1415 69.9997 81.7189 74.1045 71.252C74.1252 71.1069 74.1543 70.9777 74.1807 70.875C74.1989 70.804 74.2195 70.7332 74.2402 70.6641ZM74.9727 22.0869C73.2918 21.8818 71.6243 21.8165 70.2285 21.9111C68.7596 22.0108 67.8398 22.2743 67.4482 22.5322C66.9848 22.8376 66.5597 23.2839 66.3232 23.7119C61.704 32.0739 57.1131 40.4478 52.5928 48.8574C53.7403 48.2955 54.8947 47.7531 56.0361 47.2178C59.6499 45.5228 63.1257 43.8886 66.2188 41.7422C71.7273 37.9194 76.7376 33.2891 81.7568 28.6035C82.4442 27.9618 82.9392 27.2066 83.0859 26.502C83.2113 25.8999 83.1207 25.1906 82.3145 24.3682C81.9494 23.9958 81.0696 23.5117 79.6533 23.0615C78.2994 22.6312 76.6533 22.292 74.9727 22.0869Z" fill="#1E1E1E" stroke="black" stroke-width="3"/>
</svg>
