<svg width="119" height="119" viewBox="0 0 119 119" fill="none" xmlns="http://www.w3.org/2000/svg">
<rect width="119" height="119" rx="24" fill="#4F836D"/>
<path d="M46.7268 24.9795C55.3647 21.4743 64.5992 19.1179 74.3284 20.1865C76.3941 20.4134 78.5597 20.8248 80.5745 21.5918C83.9122 22.8625 86.3282 24.9788 87.1233 27.7031C87.9341 30.4815 86.933 33.4399 84.3977 36.0625C79.7061 40.9157 74.0019 44.8344 68.6028 48.6426C66.2733 50.2856 63.6441 51.6091 60.9709 52.9443C61.6608 53.029 62.3355 53.114 63.012 53.1924C68.5359 53.8326 73.2217 56.0935 76.8938 60.5205C76.8761 60.4992 76.9296 60.5645 77.1321 60.6611C77.3169 60.7493 77.5561 60.8303 77.8167 60.8857C78.0777 60.9413 78.3229 60.9633 78.5159 60.957C78.7312 60.9501 78.7779 60.9115 78.7249 60.9404C79.9411 60.2756 81.3537 59.5888 82.718 58.8994C84.1045 58.1988 85.4717 57.4806 86.6907 56.7148C87.9159 55.9451 88.9324 55.1634 89.6497 54.3564C90.3611 53.5559 90.7181 52.8002 90.7717 52.0586L90.7913 51.7822L90.9182 51.5371C91.1436 51.0999 91.5042 50.765 91.8147 50.5322C92.1465 50.2836 92.5324 50.0685 92.9299 49.9043C93.3259 49.7407 93.7733 49.6113 94.2307 49.5635C94.6208 49.5227 95.0907 49.5341 95.554 49.6982L95.7522 49.7783L95.9514 49.876C96.4069 50.1177 96.792 50.4482 97.0764 50.8701C97.3998 51.35 97.5446 51.8775 97.5754 52.3857C97.6344 53.359 97.2838 54.3304 96.8723 55.1162C96.4467 55.929 95.8745 56.6981 95.301 57.3125C94.7947 57.855 94.1754 58.3922 93.5608 58.6807C89.0389 61.3614 84.5552 63.9578 80.1516 66.7002C80.0629 66.7555 79.8921 66.9196 79.7131 67.2285C79.5419 67.5242 79.4229 67.8499 79.3743 68.1084C77.42 78.4925 71.0311 85.5963 62.6292 90.8848C55.5994 95.3095 47.9901 99.3888 39.1008 99.6172C37.7505 99.6519 36.1819 99.3545 34.7981 98.8252C33.4521 98.3103 32.0428 97.4847 31.2639 96.2891C30.8311 95.6247 30.7453 94.8347 30.7678 94.1748C30.7913 93.4862 30.9392 92.7544 31.1467 92.0566C31.5593 90.6698 32.2709 89.2111 33.0383 88.1836C34.1248 86.729 35.884 85.1205 37.6692 83.7021C39.4706 82.2709 41.3925 80.9598 42.8733 80.1074C52.9297 74.3191 61.1153 69.8926 71.2893 64.3555C71.545 64.2163 71.792 64.0734 72.0618 63.916C68.6646 59.6787 63.8481 58.8775 58.2922 58.668C54.7594 58.5347 51.8535 59.082 49.5334 60.4434C47.2352 61.7921 45.3688 64.0239 44.054 67.5381C41.8543 73.4172 38.7308 78.983 35.9426 84.4385C35.697 84.919 35.2061 85.6625 34.554 86.2002C34.2253 86.4712 33.7656 86.7653 33.1985 86.8711C32.5741 86.9876 31.9213 86.8541 31.3567 86.4238C30.8368 86.0274 30.5169 85.4721 30.3176 84.9756C30.112 84.4632 29.9901 83.9016 29.9309 83.3623C29.819 82.3435 29.9012 81.1009 30.3596 80.2119C33.4657 74.1901 37.1052 68.2289 40.2874 62.3701C41.9639 59.2834 43.6064 56.0564 45.2375 52.9336C49.4976 44.7779 53.6546 36.566 57.8118 28.3447C57.8465 28.276 57.8778 28.1836 57.9143 28.0283C53.3446 29.0749 47.9843 31.2918 43.3801 33.5742C40.7675 34.8694 38.4335 36.1688 36.6711 37.2529C35.7889 37.7956 35.0619 38.2773 34.5198 38.6719C34.2485 38.8693 34.0335 39.0375 33.8733 39.1748C33.8474 39.197 33.824 39.2186 33.802 39.2383C34.0958 39.3745 34.366 39.4655 34.7913 39.6416C34.9829 39.721 35.2281 39.829 35.4504 39.9688C35.6335 40.0838 36.0382 40.3618 36.2346 40.875C36.4651 41.4777 36.5433 42.3334 36.3665 43.0742C36.2756 43.4549 36.0835 43.9486 35.6624 44.3369C35.1899 44.7725 34.5702 44.9449 33.9309 44.8545C33.399 44.7792 32.8574 44.5201 32.4241 44.2725C31.9551 44.0044 31.4627 43.661 30.9993 43.293C30.118 42.5931 29.1451 41.6469 28.679 40.7754C28.3752 40.2075 28.3285 39.5566 28.3508 39.042C28.3746 38.4928 28.4865 37.9149 28.6497 37.374C28.8132 36.8318 29.0412 36.2843 29.3245 35.8018C29.5958 35.3394 29.9757 34.8369 30.4856 34.498C35.5802 31.1134 40.8885 27.3487 46.7268 24.9795ZM73.1125 69.5752C72.5775 69.7993 71.8979 70.1063 71.0979 70.4873C69.2806 71.3529 66.9019 72.5639 64.3 73.9326C59.0977 76.6693 53.0513 80.0135 48.9114 82.4414C44.866 84.8139 41.2752 88.0665 37.5891 91.334C37.2834 91.605 36.9614 92.1044 36.7961 92.6836C36.6297 93.2671 36.6752 93.7343 36.8225 94.0205C36.9317 94.2325 37.1055 94.3679 37.4797 94.4277C37.8975 94.4945 38.4415 94.4335 38.9846 94.2832C44.1966 92.8409 49.3393 91.556 54.0022 89.335C62.4639 85.3045 69.2986 79.5225 72.9924 70.0996C73.0111 69.9709 73.0354 69.856 73.0588 69.7646C73.0752 69.7008 73.0939 69.6373 73.1125 69.5752ZM73.7717 25.8555C72.259 25.6709 70.7584 25.6121 69.5022 25.6973C68.1805 25.7869 67.3528 26.0238 67.0002 26.2559C66.5832 26.5306 66.2004 26.9323 65.9875 27.3174C61.8304 34.8429 57.6993 42.3799 53.6311 49.9482C54.6634 49.4428 55.702 48.9552 56.7288 48.4736C59.9813 46.9481 63.11 45.4768 65.8938 43.5449C70.8513 40.1046 75.3601 35.9376 79.8772 31.7207C80.4958 31.1432 80.9414 30.4633 81.0735 29.8291C81.1863 29.2872 81.1058 28.6484 80.3801 27.9082C80.0515 27.573 79.2593 27.1376 77.9846 26.7324C76.7661 26.3451 75.2843 26.0401 73.7717 25.8555Z" fill="white" stroke="white" stroke-width="2.7"/>
</svg>
