<svg width="510" height="119" viewBox="0 0 510 119" fill="none" xmlns="http://www.w3.org/2000/svg">
<g clip-path="url(#clip0_1279_3)">
<path d="M91.0139 83.3241C87.2525 82.245 87.0404 79.485 87.9236 76.875C89.6163 71.8726 91.6905 66.9927 93.7596 62.127C94.8234 59.6255 95.58 57.3897 92.5833 55.9068C86.3028 59.6307 80.0172 63.2679 73.856 67.1049C72.9015 67.6994 72.145 69.1387 71.9254 70.3056C69.3364 84.0629 60.8905 93.537 49.5116 100.699C39.784 106.822 29.5872 112.237 17.7841 112.541C14.5899 112.623 10.0446 111.111 8.51847 108.769C7.32833 106.942 9.07976 102.113 10.9144 99.6566C13.6391 96.0087 20.0813 91.2022 24.0072 88.9425C37.9513 80.9165 49.299 74.7805 63.4348 67.0872C64.2974 66.6177 65.1362 66.1045 66.3415 65.4054C61.0531 57.2831 53.0141 55.9856 44.5572 55.6666C34.3113 55.2802 26.8467 58.8003 22.9547 69.2028C19.9491 77.2359 15.6951 84.8129 11.7764 92.4803C11.2441 93.5218 9.62448 95.6752 8.21337 94.5998C6.80227 93.5244 6.56541 89.8588 7.35802 88.3221C11.6829 79.9376 16.6222 71.8726 21.1279 63.577C23.466 59.2723 25.7643 54.7569 28.0172 50.4439C33.9406 39.1039 39.7198 27.6883 45.4932 16.2706C45.9225 15.4216 45.925 14.3568 46.2868 12.62C32.0356 14.9098 10.799 27.0271 8.74823 29.6395C6.6975 32.2518 11.7239 32.5143 12.1004 33.4987C12.4768 34.4831 12.4143 36.7114 10.9144 36.4993C9.41453 36.2871 5.93307 33.5286 5.01124 31.8052C4.24913 30.3803 5.40992 26.5261 6.90447 25.5332C14.0613 20.7786 21.2396 15.6898 29.128 12.4887C40.9789 7.67967 53.4732 4.52178 66.5543 5.95852C69.3309 6.26348 72.1683 6.80896 74.7666 7.79809C83.4033 11.0859 85.8214 18.1937 79.396 24.8405C73.0287 31.4272 65.271 36.7626 57.7262 42.0842C53.0399 45.3896 47.6152 47.6483 41.9124 50.7034C45.2358 51.113 48.0289 51.4745 50.8264 51.7987C58.0743 52.6388 64.1211 55.5743 68.8794 61.3108C69.7454 62.3547 72.6112 62.9725 73.7641 62.3422C80.3801 58.7257 91.0139 54.7701 91.4671 48.4957C91.9825 47.4959 94.4452 46.3109 95.7357 46.8997C97.0262 47.4885 96.3398 49.3987 96.5695 50.6614C96.7814 51.8261 96.4536 53.5089 97.1243 54.0996C100.59 57.1513 99.2836 60.2405 97.7368 63.5341C96.448 66.2782 90.4732 75.3791 93.2254 77.1817C102.622 71.7476 110.031 61.3645 117.794 53.8111C118.905 52.73 120.89 50.7249 122.278 51.7503C123.666 52.7757 122.887 55.9608 121.975 57.0356C117.034 62.8636 110.757 73.5602 111.964 76.8251C113.171 80.0899 119.092 74.3495 123.109 69.9638C128.468 64.1152 134.306 58.6928 140.12 53.2822C142.582 50.9913 145.849 49.8127 148.57 52.6234C151.03 55.1635 150.824 58.1935 148.498 61.1654C146.563 63.6389 144.927 66.3852 143.45 69.1654C142.169 71.5768 139.834 76.3066 142.719 76.2989C145.604 76.2912 147.553 73.1318 149.458 71.0742C153.861 66.3187 157.855 61.1863 162.218 56.391C163.274 55.2307 165.047 53.2134 166.595 54.0111C168.142 54.8087 167.848 57.6211 167.616 59.3085C167.317 61.4864 166.298 64.6851 165 68.1021C167.136 66.6483 164.565 68.6559 169.341 62.8458C174.117 57.0356 178.389 52.4451 181.76 54.7701C183.128 55.7137 182.604 58.12 182.378 59.7022C181.866 63.2805 180.45 66.7792 180.302 70.3476C180.097 75.3036 182.407 77.2162 187.371 77.1214C195.65 76.9634 202.116 72.573 208.438 67.9166C210.119 66.6786 212.678 64.5514 214.301 65.9582C215.923 67.365 212.311 69.8649 209.512 71.5309C203.715 74.9816 197.74 78.44 191.394 80.5869C183.173 83.3681 176 79.4993 176 70.3476C176 66.9166 179.899 61.3567 176 62.127C172.101 62.8974 167.694 72.1778 164.15 75.53C162.918 76.6952 161.56 80.9778 159.28 77.7833C157 74.5889 161.933 67.3721 161.205 64.8621C158.424 67.8387 152.684 73.8551 149.854 76.7837C144.028 82.811 140.674 82.4704 136.458 75.5007C126.656 86.7135 125.54 82.9782 120.878 79.0899C116.061 80.0357 113.881 83.914 109.322 82.0484C104.762 80.1827 110.288 68.5939 109.926 68.1021C109.564 67.6104 97.9206 80.2976 91.0139 83.3241ZM66.7422 73.872C66.7422 72.827 68.4788 70.3056 66.3415 70.3056C64.2043 70.3056 42.0676 82.1637 30.5087 88.9425C24.6988 92.3498 19.5657 97.0071 14.4887 101.508C13.0312 102.8 12.0155 105.586 13 107.499C13.9845 109.413 16.385 109.308 18.1703 108.813C25.3311 106.832 32.672 104.999 39.334 101.826C51.452 96.054 61.413 87.6596 66.7422 73.872ZM37.1828 47.9391C43.5304 44.7058 50.3147 42.1017 56.1135 38.0775C63.127 33.2103 69.4831 27.3305 75.7457 21.484C77.7955 19.5705 79.3567 16.4177 76.5027 13.5067C73.3228 10.2631 59.2295 8.53426 55.5493 10.9585C54.7497 11.4852 53.9939 12.2584 53.5332 13.0923C47.5252 23.9683 41.5529 34.8643 35.6776 45.8122C35.4124 46.3065 36.1558 47.3422 37.1828 47.9391ZM144.281 57.9078C140.907 54.518 123.543 75.6439 126.522 78.1154C129.192 80.3312 146.281 59.9166 144.281 57.9078Z" fill="white"/>
<path d="M388.877 64.8737C385.252 66.2104 382.487 68.2351 382.07 72.5139C381.66 76.7273 380.284 80.2686 375.468 81.3645C370.793 82.4285 367.944 79.71 365.134 76.7779C364.703 76.3284 364.43 75.7281 364.086 75.2012C352.972 82.1658 347.799 82.6561 347.614 71.0736C343.785 74.2887 340.188 78.0008 335.94 80.6827C331.623 83.4085 329.837 82.3556 327.686 77.4412C318.965 82.2066 318.538 82.1286 314.466 74.7965C312.222 76.5521 310.204 78.6744 307.738 79.8821C305.879 80.7926 302.598 81.5096 301.485 80.5438C300.107 79.3485 299.357 75.9891 300.001 74.1473C303.158 65.1237 308.933 57.7937 316.928 52.6132C318.979 51.2845 323.055 50.9035 324.998 52.0776C328.228 54.0291 327.529 57.5543 325.657 60.8783C323.127 65.3675 317.673 72.8036 319.491 75.1852C321.308 77.5669 328.329 70.7187 331.428 67.0604C335.075 62.7545 338.678 58.4074 342.421 54.1859C345.868 50.2987 349.883 48.025 354.706 50.8037C359.911 40.947 364.797 31.3466 370.082 21.9714C371.16 20.0596 374.835 17.391 375.443 17.8065C378.671 20.0137 376.954 23.0137 375.429 25.6627C370.208 34.736 364.666 43.6403 359.823 52.9104C356.931 58.4463 354.992 64.5015 352.915 70.4254C352.47 71.6956 353.282 73.4063 353.515 74.9141C354.898 74.5898 356.478 74.5898 357.634 73.8903C367.734 67.7818 374.974 59.039 380.412 48.6919C381.428 46.7589 383.367 45.2103 385.08 45.7262C386.792 46.2422 385.827 48.4155 385.582 49.6361C384.779 53.6439 383.684 57.5933 382.327 63.0754C389.556 59.1678 394.571 55.2822 397.68 49.1911C402.131 40.4688 406.554 31.7318 411.116 23.0675C412.424 20.5822 413.841 17.9886 415.817 16.0739C417.337 14.6015 420.007 12.0401 421.864 13.1914C423.721 14.3427 422.538 17.8848 421.597 19.4767C415.1 30.4722 408.113 41.178 401.581 52.1538C399.616 55.4554 390.456 71.7187 393 71.9245C395.545 72.1304 397.432 68.4981 400.5 65.2853C403.568 62.0726 407.395 56.5217 411.926 52.134C413.02 51.0744 415.136 49.4941 416.568 50.3588C418 51.2235 417.509 53.7757 417.186 55.3184C416.238 59.8577 414.832 64.2995 413.703 68.8038C412.992 71.6385 411.474 75.3484 415.223 76.4233C416.588 76.815 419.941 73.4183 421.016 71.1111C424.669 63.2714 429.48 56.4555 436.229 51.0561C439.245 48.6433 443.465 48.2733 446.549 51.1792C447.537 52.1098 447.383 55.1516 446.687 56.8039C444.913 61.0163 436.5 70.1565 438.5 73.5002C440.5 76.844 447.631 68.9701 450.257 65.7255C453.26 62.0146 455.204 57.4636 458.004 53.5619C458.874 52.3491 461.109 50.4497 462.603 51.3507C464.098 52.2518 463.611 55.2395 462.924 56.568C460.409 61.4327 453.776 70.1439 455.368 71.4059C456.96 72.6678 467.759 64.7414 471.625 58.657C472.983 56.5195 474.266 52.8939 477.06 53.9709C479.854 55.0478 476.856 58.6689 476.05 61.0613C474.841 64.646 473.543 68.2473 472.86 71.9481C472.279 75.094 474.058 76.5772 477.355 75.9515C484.065 74.6782 494.828 62.7761 494.444 56.1521C494.332 54.2164 493.983 52.9056 492.5 51.0002C491.449 49.6495 485.749 49.6441 487.125 46.3222C488.5 43.0002 491.29 44.9286 492.782 45.5819C497.872 47.8117 500.336 53.4848 498.806 58.9697C496.091 68.7082 489.83 75.6092 480.682 79.6458C473.542 82.7966 468.72 78.8878 467.962 69.5743C465.116 71.5888 462.503 73.7754 459.587 75.4271C454.505 78.306 453.221 77.803 450.324 72.6678C438.051 79.9121 437.421 79.8955 434.758 71.9245C433.558 72.8751 426.5 79.2868 425 75.4271C423.5 71.5674 420.02 78.7532 414.31 80.2242C409.647 81.4256 406.83 75.6081 408.546 69.6551C409.297 67.0496 413.557 58.1364 411.116 59.0002C408.674 59.864 405.07 65.7305 401.581 69.6551C399.706 71.7645 395.982 75.7487 393.872 77.5957C392.879 78.4645 390.798 79.2965 389.943 78.823C388.763 78.1703 387.575 76.2351 387.634 74.9045C387.764 71.975 388.674 69.0802 389.547 65.6067C389.789 64.7899 389.75 64.5376 389.71 64.2853C389.432 64.4815 389.154 64.6776 388.877 64.8737ZM372.729 68.1478C376.794 67.1307 380.244 65.6486 378.632 59.9547C376.334 62.4542 372.519 65.2193 371.504 68.5253C371.662 68.3417 371.82 68.1581 372.729 68.1478ZM352.915 54.1859C349.977 50.13 329.56 74.4915 332.5 76.7779C335.44 79.0643 355.854 58.2419 352.915 54.1859ZM321.5 55.5383C317.733 52.6849 301.627 74.5355 304 76.7779C306.373 79.0203 325.777 58.7779 321.5 55.5383ZM427 71.4059C429.338 73.2926 446.838 57.7184 442.5 53.5619C438.162 49.4054 424.663 69.5192 427 71.4059ZM377.287 73.8903C377.99 72.1636 377.492 72.0796 377.287 71.5515C374.726 72.6637 372.166 73.776 368.705 75.2794C373.215 77.8752 376.584 75.617 377.287 73.8903Z" fill="white"/>
<path d="M237.402 108.083C229.222 110.958 221.326 112.895 212.522 111.809C203.329 107.913 202.111 102.292 208.846 95.3847C211.723 92.4339 215.393 90.2707 218.418 87.4452C223.5 83.5005 223.5 83.5005 225.776 79.1906C229.735 72.6719 233.247 65.8699 236.692 59.0577C243.013 46.5606 249.398 34.2674 256.294 21.7878C256.981 20.546 258.755 18.4783 260.237 19.1035C261.719 19.7286 261.602 22.6035 261.056 23.7842C258.827 28.5969 256.088 33.1716 253.584 37.8593C252.688 39.5376 251.926 41.2875 250.519 44.2207C261.81 37.7744 271.643 31.6837 278.625 22.0891C283.671 15.1547 281.485 8.79487 273.002 8.21274C265.085 7.66947 256.631 8.40492 249.08 10.7375C239.522 13.6902 230.383 18.3613 221.571 23.2138C217.022 25.7188 215.596 30.5753 211.249 31.5005C206.903 32.4257 206.326 29.4186 209.587 26.5509C213.789 22.8557 218.243 19.1794 223.177 16.6379C235.137 10.4776 247.38 4.45538 261.072 3.65871C267.032 3.31193 274.277 3.69343 280 5.50049C286.946 7.69371 288.549 14.8183 284.751 21.0295C281.541 26.2785 277.002 30.9279 272.325 35.0101C267.13 39.5444 261.111 43.1351 254.749 47.6328C265.386 49.137 273.612 52.9879 277.558 62.896C283.998 61.9908 287.335 57.9516 289.357 52.5397C290.807 48.6565 293.5 48.5005 294.859 51.7852C299.902 57.0953 300.047 62.3966 296.279 68.3988C294.629 71.026 291.671 74.6197 292.114 77.2978C292.628 80.4027 297.372 77.0926 297.726 78.7081C298.081 80.3236 292.541 82.0484 291.497 81.4347C290.063 80.5922 288.433 78.9176 289 76.2144C289.567 73.5112 293.018 68.0464 293.969 65.0842C294.921 62.122 298.183 59.0577 292.969 56.0005C290.804 54.7306 290.242 63.6109 279.214 66.5579C277.558 67.0005 278.211 67.8738 278.139 68.5972C276.626 83.6615 266.349 92.2664 254.788 99.615C249.502 102.975 243.487 105.191 237.402 108.083ZM211.249 98.9406C207.491 104.873 208.257 106.601 215.152 107.503C216.621 107.695 218.159 107.752 219.621 107.551C234.958 105.444 248.793 99.7018 260.575 89.6263C266.971 84.1569 272.505 77.8612 273.703 68.0292C258.372 72.3936 244.099 77.4417 230.616 84.6553C227.726 86.2015 227 85.0005 225 89.5005C223.958 91.8444 221.5 97.0005 219 96.0005C216.5 95.0005 222.255 88.3715 217.917 92.5183C216.288 94.0756 214.024 96.2395 211.249 98.9406ZM241.949 75.4605C252.472 71.6518 262.995 67.8432 273.519 64.034C270.519 57.3591 266.096 53.9814 258.509 52.5511C248.695 50.7009 246.518 51.6555 241.435 60.2657C238.658 64.9694 235.974 69.7279 233.281 74.4807C232.309 76.1972 231.434 77.969 229.982 80.7272C234.626 78.686 237.937 77.2307 241.949 75.4605Z" fill="white"/>
<path d="M131.693 40.1798C131.071 41.7325 130 42.5006 128.332 40.9686C126.663 39.4366 126.5 38.0006 127.5 35.9338C128.5 33.867 131.235 35.1138 131.693 35.9339C132.151 36.754 132.314 38.6271 131.693 40.1798Z" fill="white"/>
<path opacity="0.6" d="M297.327 119V96.956H302.574L312.111 114.71V96.956H315.84V119H310.593L301.056 101.18V119H297.327ZM323.17 119V96.956H332.08C333.686 96.956 335.05 97.198 336.172 97.682C337.294 98.144 338.141 98.804 338.713 99.662C339.307 100.52 339.604 101.521 339.604 102.665C339.604 103.655 339.362 104.568 338.878 105.404C338.416 106.218 337.668 106.878 336.634 107.384C337.998 107.89 338.988 108.605 339.604 109.529C340.22 110.431 340.528 111.454 340.528 112.598C340.528 113.852 340.209 114.963 339.571 115.931C338.933 116.899 338.02 117.658 336.832 118.208C335.644 118.736 334.214 119 332.542 119H323.17ZM326.965 115.832H332.542C333.488 115.832 334.258 115.678 334.852 115.37C335.468 115.062 335.919 114.655 336.205 114.149C336.491 113.621 336.634 113.049 336.634 112.433C336.634 111.487 336.304 110.706 335.644 110.09C334.984 109.452 333.95 109.133 332.542 109.133H326.965V115.832ZM326.965 106.163H332.278C333.488 106.163 334.368 105.877 334.918 105.305C335.468 104.733 335.743 104.007 335.743 103.127C335.743 102.203 335.435 101.466 334.819 100.916C334.203 100.366 333.29 100.091 332.08 100.091H326.965V106.163ZM355.741 119.396C353.563 119.396 351.704 118.923 350.164 117.977C348.624 117.009 347.436 115.667 346.6 113.951C345.786 112.235 345.379 110.233 345.379 107.945C345.379 105.657 345.808 103.666 346.666 101.972C347.546 100.256 348.778 98.925 350.362 97.979C351.946 97.033 353.805 96.56 355.939 96.56C357.875 96.56 359.591 97 361.087 97.88C362.605 98.76 363.749 99.992 364.519 101.576L361.186 102.797C360.702 101.851 359.987 101.103 359.041 100.553C358.117 100.003 357.028 99.728 355.774 99.728C354.586 99.728 353.497 100.047 352.507 100.685C351.539 101.301 350.769 102.225 350.197 103.457C349.625 104.689 349.339 106.185 349.339 107.945C349.339 109.705 349.614 111.201 350.164 112.433C350.714 113.665 351.484 114.611 352.474 115.271C353.486 115.909 354.619 116.228 355.873 116.228C356.709 116.228 357.468 116.118 358.15 115.898C358.854 115.656 359.47 115.304 359.998 114.842C360.548 114.38 360.988 113.819 361.318 113.159L364.651 114.38C363.837 115.986 362.649 117.229 361.087 118.109C359.525 118.967 357.743 119.396 355.741 119.396ZM369.251 112.4V109.199H379.25V112.4H369.251ZM385.263 119V96.956H389.058V105.998H399.783V96.956H403.578V119H399.783V109.331H389.058V119H385.263ZM414.609 119L409.131 96.956H413.124L417.018 114.215L420.78 96.956H425.004L428.766 114.215L432.66 96.956H436.653L431.208 119H426.852L422.892 101.675L418.932 119H414.609ZM451.186 119.396C449.008 119.396 447.149 118.923 445.609 117.977C444.069 117.009 442.881 115.667 442.045 113.951C441.231 112.235 440.824 110.233 440.824 107.945C440.824 105.657 441.253 103.666 442.111 101.972C442.991 100.256 444.223 98.925 445.807 97.979C447.391 97.033 449.25 96.56 451.384 96.56C453.32 96.56 455.036 97 456.532 97.88C458.05 98.76 459.194 99.992 459.964 101.576L456.631 102.797C456.147 101.851 455.432 101.103 454.486 100.553C453.562 100.003 452.473 99.728 451.219 99.728C450.031 99.728 448.942 100.047 447.952 100.685C446.984 101.301 446.214 102.225 445.642 103.457C445.07 104.689 444.784 106.185 444.784 107.945C444.784 109.705 445.059 111.201 445.609 112.433C446.159 113.665 446.929 114.611 447.919 115.271C448.931 115.909 450.064 116.228 451.318 116.228C452.154 116.228 452.913 116.118 453.595 115.898C454.299 115.656 454.915 115.304 455.443 114.842C455.993 114.38 456.433 113.819 456.763 113.159L460.096 114.38C459.282 115.986 458.094 117.229 456.532 118.109C454.97 118.967 453.188 119.396 451.186 119.396Z" fill="white"/>
</g>
<defs>
<clipPath id="clip0_1279_3">
<rect width="510" height="119" fill="white"/>
</clipPath>
</defs>
</svg>
