<svg width="510" height="119" viewBox="0 0 510 119" fill="none" xmlns="http://www.w3.org/2000/svg">
<g clip-path="url(#clip0_89_167)">
<path d="M91.0139 80.3241C87.2525 79.245 87.0404 76.485 87.9236 73.875C89.6163 68.8726 91.6905 63.9927 93.7596 59.127C94.8234 56.6255 95.58 54.3897 92.5833 52.9068C86.3028 56.6307 80.0172 60.2679 73.856 64.1049C72.9015 64.6994 72.145 66.1387 71.9254 67.3056C69.3364 81.0629 60.8905 90.537 49.5116 97.6993C39.784 103.822 29.5872 109.237 17.7841 109.541C14.5899 109.623 10.0446 108.111 8.51847 105.769C7.32833 103.942 9.07976 99.1129 10.9144 96.6566C13.6391 93.0087 20.0813 88.2022 24.0072 85.9425C37.9513 77.9165 49.299 71.7805 63.4348 64.0872C64.2974 63.6177 65.1362 63.1045 66.3415 62.4054C61.0531 54.2831 53.0141 52.9856 44.5572 52.6666C34.3113 52.2802 26.8467 55.8003 22.9547 66.2028C19.9491 74.2359 15.6951 81.8129 11.7764 89.4803C11.2441 90.5218 9.62448 92.6752 8.21337 91.5998C6.80227 90.5244 6.56541 86.8588 7.35802 85.3221C11.6829 76.9376 16.6222 68.8726 21.1279 60.577C23.466 56.2723 25.7643 51.7569 28.0172 47.4439C33.9406 36.1039 39.7198 24.6883 45.4932 13.2706C45.9225 12.4216 45.925 11.3568 46.2868 9.61996C32.0356 11.9098 10.799 24.0271 8.74823 26.6395C6.6975 29.2518 11.7239 29.5143 12.1004 30.4987C12.4768 31.4831 12.4143 33.7114 10.9144 33.4993C9.41453 33.2871 5.93307 30.5286 5.01124 28.8052C4.24913 27.3803 5.40992 23.5261 6.90447 22.5332C14.0613 17.7786 21.2396 12.6898 29.128 9.48871C40.9789 4.67967 53.4732 1.52178 66.5543 2.95852C69.3309 3.26348 72.1683 3.80896 74.7666 4.79809C83.4033 8.08589 85.8214 15.1937 79.396 21.8405C73.0287 28.4272 65.271 33.7626 57.7262 39.0842C53.0399 42.3896 47.6152 44.6483 41.9124 47.7034C45.2358 48.113 48.0289 48.4745 50.8264 48.7987C58.0743 49.6388 64.1211 52.5743 68.8794 58.3108C69.7454 59.3547 72.6112 59.9725 73.7641 59.3422C80.3801 55.7257 91.0139 51.7701 91.4671 45.4957C91.9825 44.4959 94.4452 43.3109 95.7357 43.8997C97.0262 44.4885 96.3398 46.3987 96.5695 47.6614C96.7814 48.8261 96.4536 50.5089 97.1243 51.0996C100.59 54.1513 99.2836 57.2405 97.7368 60.5341C96.448 63.2782 90.4732 72.3791 93.2254 74.1817C102.622 68.7476 110.031 58.3645 117.794 50.8111C118.905 49.73 120.89 47.7249 122.278 48.7503C123.666 49.7757 122.887 52.9608 121.975 54.0356C117.034 59.8636 110.757 70.5602 111.964 73.8251C113.171 77.0899 119.092 71.3495 123.109 66.9638C128.468 61.1152 134.306 55.6928 140.12 50.2822C142.582 47.9913 145.849 46.8127 148.57 49.6234C151.03 52.1635 150.824 55.1935 148.498 58.1654C146.563 60.6389 144.927 63.3852 143.45 66.1654C142.169 68.5768 139.834 73.3066 142.719 73.2989C145.604 73.2912 147.553 70.1318 149.458 68.0742C153.861 63.3187 157.855 58.1863 162.218 53.391C163.274 52.2307 165.047 50.2134 166.595 51.0111C168.142 51.8087 167.848 54.6211 167.616 56.3085C167.317 58.4864 166.298 61.6851 165 65.1021C167.136 63.6483 164.565 65.6559 169.341 59.8458C174.117 54.0356 178.389 49.4451 181.76 51.7701C183.128 52.7137 182.604 55.12 182.378 56.7022C181.866 60.2805 180.45 63.7792 180.302 67.3476C180.097 72.3036 182.407 74.2162 187.371 74.1214C195.65 73.9634 202.116 69.573 208.438 64.9166C210.119 63.6786 212.678 61.5514 214.301 62.9582C215.923 64.365 212.311 66.8649 209.512 68.5309C203.715 71.9816 197.74 75.44 191.394 77.5869C183.173 80.3681 176 76.4993 176 67.3476C176 63.9166 179.899 58.3567 176 59.127C172.101 59.8974 167.694 69.1778 164.15 72.53C162.918 73.6952 161.56 77.9778 159.28 74.7833C157 71.5889 161.933 64.3721 161.205 61.8621C158.424 64.8387 152.684 70.8551 149.854 73.7837C144.028 79.811 140.674 79.4704 136.458 72.5007C126.656 83.7135 125.54 79.9782 120.878 76.0899C116.061 77.0357 113.881 80.914 109.322 79.0484C104.762 77.1827 110.288 65.5939 109.926 65.1021C109.564 64.6104 97.9206 77.2976 91.0139 80.3241ZM66.7422 70.872C66.7422 69.827 68.4788 67.3056 66.3415 67.3056C64.2043 67.3056 42.0676 79.1637 30.5087 85.9425C24.6988 89.3498 19.5657 94.0071 14.4887 98.5077C13.0312 99.7997 12.0155 102.586 13 104.499C13.9845 106.413 16.385 106.308 18.1703 105.813C25.3311 103.832 32.672 101.999 39.334 98.826C51.452 93.054 61.413 84.6596 66.7422 70.872ZM37.1828 44.9391C43.5304 41.7058 50.3147 39.1017 56.1135 35.0775C63.127 30.2103 69.4831 24.3305 75.7457 18.484C77.7955 16.5705 79.3567 13.4177 76.5027 10.5067C73.3228 7.26311 59.2295 5.53426 55.5493 7.95848C54.7497 8.48519 53.9939 9.25844 53.5332 10.0923C47.5252 20.9683 41.5529 31.8643 35.6776 42.8122C35.4124 43.3065 36.1558 44.3422 37.1828 44.9391ZM144.281 54.9078C140.907 51.518 123.543 72.6439 126.522 75.1154C129.192 77.3312 146.281 56.9166 144.281 54.9078Z" fill="white"/>
<path d="M388.877 61.8737C385.252 63.2104 382.487 65.2351 382.07 69.5139C381.66 73.7273 380.284 77.2686 375.468 78.3645C370.793 79.4285 367.944 76.71 365.134 73.7779C364.703 73.3284 364.43 72.7281 364.086 72.2012C352.972 79.1658 347.799 79.6561 347.614 68.0736C343.785 71.2887 340.188 75.0008 335.94 77.6827C331.623 80.4085 329.837 79.3556 327.686 74.4412C318.965 79.2066 318.538 79.1286 314.466 71.7965C312.222 73.5521 310.204 75.6744 307.738 76.8821C305.879 77.7926 302.598 78.5096 301.485 77.5438C300.107 76.3485 299.357 72.9891 300.001 71.1473C303.158 62.1237 308.933 54.7937 316.928 49.6132C318.979 48.2845 323.055 47.9035 324.998 49.0776C328.228 51.0291 327.529 54.5543 325.657 57.8783C323.127 62.3675 317.673 69.8036 319.491 72.1852C321.308 74.5669 328.329 67.7187 331.428 64.0604C335.075 59.7545 338.678 55.4074 342.421 51.1859C345.868 47.2987 349.883 45.025 354.706 47.8037C359.911 37.947 364.797 28.3466 370.082 18.9714C371.16 17.0596 374.835 14.391 375.443 14.8065C378.671 17.0137 376.954 20.0137 375.429 22.6627C370.208 31.736 364.666 40.6403 359.823 49.9104C356.931 55.4463 354.992 61.5015 352.915 67.4254C352.47 68.6956 353.282 70.4063 353.515 71.9141C354.898 71.5898 356.478 71.5898 357.634 70.8903C367.734 64.7818 374.974 56.039 380.412 45.6919C381.428 43.7589 383.367 42.2103 385.08 42.7262C386.792 43.2422 385.827 45.4155 385.582 46.6361C384.779 50.6439 383.684 54.5933 382.327 60.0754C389.556 56.1678 394.571 52.2822 397.68 46.1911C402.131 37.4688 406.554 28.7318 411.116 20.0675C412.424 17.5822 413.841 14.9886 415.817 13.0739C417.337 11.6015 420.007 9.04011 421.864 10.1914C423.721 11.3427 422.538 14.8848 421.597 16.4767C415.1 27.4722 408.113 38.178 401.581 49.1538C399.616 52.4554 390.456 68.7187 393 68.9245C395.545 69.1304 397.432 65.4981 400.5 62.2853C403.568 59.0726 407.395 53.5217 411.926 49.134C413.02 48.0744 415.136 46.4941 416.568 47.3588C418 48.2235 417.509 50.7757 417.186 52.3184C416.238 56.8577 414.832 61.2995 413.703 65.8038C412.992 68.6385 411.474 72.3484 415.223 73.4233C416.588 73.815 419.941 70.4183 421.016 68.1111C424.669 60.2714 429.48 53.4555 436.229 48.0561C439.245 45.6433 443.465 45.2733 446.549 48.1792C447.537 49.1098 447.383 52.1516 446.687 53.8039C444.913 58.0163 436.5 67.1565 438.5 70.5002C440.5 73.844 447.631 65.9701 450.257 62.7255C453.26 59.0146 455.204 54.4636 458.004 50.5619C458.874 49.3491 461.109 47.4497 462.603 48.3507C464.098 49.2518 463.611 52.2395 462.924 53.568C460.409 58.4327 453.776 67.1439 455.368 68.4059C456.96 69.6678 467.759 61.7414 471.625 55.657C472.983 53.5195 474.266 49.8939 477.06 50.9709C479.854 52.0478 476.856 55.6689 476.05 58.0613C474.841 61.646 473.543 65.2473 472.86 68.9481C472.279 72.094 474.058 73.5772 477.355 72.9515C484.065 71.6782 494.828 59.7761 494.444 53.1521C494.332 51.2164 493.983 49.9056 492.5 48.0002C491.449 46.6495 485.749 46.6441 487.125 43.3222C488.5 40.0002 491.29 41.9286 492.782 42.5819C497.872 44.8117 500.336 50.4848 498.806 55.9697C496.091 65.7082 489.83 72.6092 480.682 76.6458C473.542 79.7966 468.72 75.8878 467.962 66.5743C465.116 68.5888 462.503 70.7754 459.587 72.4271C454.505 75.306 453.221 74.803 450.324 69.6678C438.051 76.9121 437.421 76.8955 434.758 68.9245C433.558 69.8751 426.5 76.2868 425 72.4271C423.5 68.5674 420.02 75.7532 414.31 77.2242C409.647 78.4256 406.83 72.6081 408.546 66.6551C409.297 64.0496 413.557 55.1364 411.116 56.0002C408.674 56.864 405.07 62.7305 401.581 66.6551C399.706 68.7645 395.982 72.7487 393.872 74.5957C392.879 75.4645 390.798 76.2965 389.943 75.823C388.763 75.1703 387.575 73.2351 387.634 71.9045C387.764 68.975 388.674 66.0802 389.547 62.6067C389.789 61.7899 389.75 61.5376 389.71 61.2853C389.432 61.4815 389.154 61.6776 388.877 61.8737ZM372.729 65.1478C376.794 64.1307 380.244 62.6486 378.632 56.9547C376.334 59.4542 372.519 62.2193 371.504 65.5253C371.662 65.3417 371.82 65.1581 372.729 65.1478ZM352.915 51.1859C349.977 47.13 329.56 71.4915 332.5 73.7779C335.44 76.0643 355.854 55.2419 352.915 51.1859ZM321.5 52.5383C317.733 49.6849 301.627 71.5355 304 73.7779C306.373 76.0203 325.777 55.7779 321.5 52.5383ZM427 68.4059C429.338 70.2926 446.838 54.7184 442.5 50.5619C438.162 46.4054 424.663 66.5192 427 68.4059ZM377.287 70.8903C377.99 69.1636 377.492 69.0796 377.287 68.5515C374.726 69.6637 372.166 70.776 368.705 72.2794C373.215 74.8752 376.584 72.617 377.287 70.8903Z" fill="white"/>
<path d="M237.402 105.083C229.222 107.958 221.326 109.895 212.522 108.809C203.329 104.913 202.111 99.2921 208.846 92.3847C211.723 89.4339 215.393 87.2707 218.418 84.4452C223.5 80.5005 223.5 80.5005 225.776 76.1906C229.735 69.6719 233.247 62.8699 236.692 56.0577C243.013 43.5606 249.398 31.2674 256.294 18.7878C256.981 17.546 258.755 15.4783 260.237 16.1035C261.719 16.7286 261.602 19.6035 261.056 20.7842C258.827 25.5969 256.088 30.1716 253.584 34.8593C252.688 36.5376 251.926 38.2875 250.519 41.2207C261.81 34.7744 271.643 28.6837 278.625 19.0891C283.671 12.1547 281.485 5.79487 273.002 5.21274C265.085 4.66947 256.631 5.40492 249.08 7.73747C239.522 10.6902 230.383 15.3613 221.571 20.2138C217.022 22.7188 215.596 27.5753 211.249 28.5005C206.903 29.4257 206.326 26.4186 209.587 23.5509C213.789 19.8557 218.243 16.1794 223.177 13.6379C235.137 7.47763 247.38 1.45538 261.072 0.658711C267.032 0.311934 274.277 0.693433 280 2.50049C286.946 4.69371 288.549 11.8183 284.751 18.0295C281.541 23.2785 277.002 27.9279 272.325 32.0101C267.13 36.5444 261.111 40.1351 254.749 44.6328C265.386 46.137 273.612 49.9879 277.558 59.896C283.998 58.9908 287.335 54.9516 289.357 49.5397C290.807 45.6565 293.5 45.5005 294.859 48.7852C299.902 54.0953 300.047 59.3966 296.279 65.3988C294.629 68.026 291.671 71.6197 292.114 74.2978C292.628 77.4027 297.372 74.0926 297.726 75.7081C298.081 77.3236 292.541 79.0484 291.497 78.4347C290.063 77.5922 288.433 75.9176 289 73.2144C289.567 70.5112 293.018 65.0464 293.969 62.0842C294.921 59.122 298.183 56.0577 292.969 53.0005C290.804 51.7306 290.242 60.6109 279.214 63.5579C277.558 64.0005 278.211 64.8738 278.139 65.5972C276.626 80.6615 266.349 89.2664 254.788 96.615C249.502 99.9754 243.487 102.191 237.402 105.083ZM211.249 95.9406C207.491 101.873 208.257 103.601 215.152 104.503C216.621 104.695 218.159 104.752 219.621 104.551C234.958 102.444 248.793 96.7018 260.575 86.6263C266.971 81.1569 272.505 74.8612 273.703 65.0292C258.372 69.3936 244.099 74.4417 230.616 81.6553C227.726 83.2015 227 82.0005 225 86.5005C223.958 88.8444 221.5 94.0005 219 93.0005C216.5 92.0005 222.255 85.3715 217.917 89.5183C216.288 91.0756 214.024 93.2395 211.249 95.9406ZM241.949 72.4605C252.472 68.6518 262.995 64.8432 273.519 61.034C270.519 54.3591 266.096 50.9814 258.509 49.5511C248.695 47.7009 246.518 48.6555 241.435 57.2657C238.658 61.9694 235.974 66.7279 233.281 71.4807C232.309 73.1972 231.434 74.969 229.982 77.7272C234.626 75.686 237.937 74.2307 241.949 72.4605Z" fill="white"/>
<path d="M131.693 37.1792C131.071 38.7319 130 39.5 128.332 37.968C126.663 36.436 126.5 35 127.5 32.9331C128.5 30.8663 131.235 32.1132 131.693 32.9333C132.151 33.7533 132.314 35.6264 131.693 37.1792Z" fill="white"/>
<path opacity="0.6" d="M314.448 119V94.952H320.172L330.576 114.32V94.952H334.644V119H328.92L318.516 99.56V119H314.448ZM342.64 119V94.952H352.36C354.112 94.952 355.6 95.216 356.824 95.744C358.048 96.248 358.972 96.968 359.596 97.904C360.244 98.84 360.568 99.932 360.568 101.18C360.568 102.26 360.304 103.256 359.776 104.168C359.272 105.056 358.456 105.776 357.328 106.328C358.816 106.88 359.896 107.66 360.568 108.668C361.24 109.652 361.576 110.768 361.576 112.016C361.576 113.384 361.228 114.596 360.532 115.652C359.836 116.708 358.84 117.536 357.544 118.136C356.248 118.712 354.688 119 352.864 119H342.64ZM346.78 115.544H352.864C353.896 115.544 354.736 115.376 355.384 115.04C356.056 114.704 356.548 114.26 356.86 113.708C357.172 113.132 357.328 112.508 357.328 111.836C357.328 110.804 356.968 109.952 356.248 109.28C355.528 108.584 354.4 108.236 352.864 108.236H346.78V115.544ZM346.78 104.996H352.576C353.896 104.996 354.856 104.684 355.456 104.06C356.056 103.436 356.356 102.644 356.356 101.684C356.356 100.676 356.02 99.872 355.348 99.272C354.676 98.672 353.68 98.372 352.36 98.372H346.78V104.996ZM378.172 119.432C375.796 119.432 373.768 118.916 372.088 117.884C370.408 116.828 369.112 115.364 368.2 113.492C367.312 111.62 366.868 109.436 366.868 106.94C366.868 104.444 367.336 102.272 368.272 100.424C369.232 98.552 370.576 97.1 372.304 96.068C374.032 95.036 376.06 94.52 378.388 94.52C380.5 94.52 382.372 95 384.004 95.96C385.66 96.92 386.908 98.264 387.748 99.992L384.112 101.324C383.584 100.292 382.804 99.476 381.772 98.876C380.764 98.276 379.576 97.976 378.208 97.976C376.912 97.976 375.724 98.324 374.644 99.02C373.588 99.692 372.748 100.7 372.124 102.044C371.5 103.388 371.188 105.02 371.188 106.94C371.188 108.86 371.488 110.492 372.088 111.836C372.688 113.18 373.528 114.212 374.608 114.932C375.712 115.628 376.948 115.976 378.316 115.976C379.228 115.976 380.056 115.856 380.8 115.616C381.568 115.352 382.24 114.968 382.816 114.464C383.416 113.96 383.896 113.348 384.256 112.628L387.892 113.96C387.004 115.712 385.708 117.068 384.004 118.028C382.3 118.964 380.356 119.432 378.172 119.432ZM392.91 111.8V108.308H403.818V111.8H392.91ZM410.378 119V94.952H414.518V104.816H426.218V94.952H430.358V119H426.218V108.452H414.518V119H410.378ZM442.392 119L436.416 94.952H440.772L445.02 113.78L449.124 94.952H453.732L457.836 113.78L462.084 94.952H466.44L460.5 119H455.748L451.428 100.1L447.108 119H442.392ZM482.294 119.432C479.918 119.432 477.89 118.916 476.21 117.884C474.53 116.828 473.234 115.364 472.322 113.492C471.434 111.62 470.99 109.436 470.99 106.94C470.99 104.444 471.458 102.272 472.394 100.424C473.354 98.552 474.698 97.1 476.426 96.068C478.154 95.036 480.182 94.52 482.51 94.52C484.622 94.52 486.494 95 488.126 95.96C489.782 96.92 491.03 98.264 491.87 99.992L488.234 101.324C487.706 100.292 486.926 99.476 485.894 98.876C484.886 98.276 483.698 97.976 482.33 97.976C481.034 97.976 479.846 98.324 478.766 99.02C477.71 99.692 476.87 100.7 476.246 102.044C475.622 103.388 475.31 105.02 475.31 106.94C475.31 108.86 475.61 110.492 476.21 111.836C476.81 113.18 477.65 114.212 478.73 114.932C479.834 115.628 481.07 115.976 482.438 115.976C483.35 115.976 484.178 115.856 484.922 115.616C485.69 115.352 486.362 114.968 486.938 114.464C487.538 113.96 488.018 113.348 488.378 112.628L492.014 113.96C491.126 115.712 489.83 117.068 488.126 118.028C486.422 118.964 484.478 119.432 482.294 119.432Z" fill="white"/>
</g>
<defs>
<clipPath id="clip0_89_167">
<rect width="510" height="119" fill="white"/>
</clipPath>
</defs>
</svg>
