<svg width="261" height="58" viewBox="0 0 261 58" fill="none" xmlns="http://www.w3.org/2000/svg">
<path d="M1.67578 44.7201C1.1235 44.7201 0.675781 44.2724 0.675781 43.7201L0.675781 4C0.675781 3.44772 1.1235 3 1.67578 3H5.50998C5.81671 3 6.10647 3.14077 6.29606 3.38188L30.4672 34.121C30.8862 34.6539 30.5764 35.4408 29.9066 35.545C29.3691 35.6286 28.8838 35.213 28.8838 34.669V7.00012C28.8838 6.44784 29.3315 6.00012 29.8838 6.00012H34.4358C34.9881 6.00012 35.4358 6.44784 35.4358 7.00012V43.7201C35.4358 44.2724 34.9881 44.7201 34.4358 44.7201H30.6056C30.2966 44.7201 30.0049 44.5773 29.8155 44.3331L5.74181 13.3003C5.34651 12.7907 5.63081 12.0434 6.26486 11.9254C6.79461 11.8269 7.28378 12.2334 7.28378 12.7723V43.7201C7.28378 44.2724 6.83607 44.7201 6.28378 44.7201H1.67578Z" fill="#313E4A"/>
<path d="M55.6822 44.3921C52.6582 44.3921 49.9702 43.7015 47.6182 42.3201C45.3036 40.9015 43.4929 38.9975 42.1862 36.6081C40.8796 34.1815 40.2262 31.4748 40.2262 28.4881C40.2262 25.4268 40.8796 22.7201 42.1862 20.3681C43.5302 18.0161 45.3222 16.1681 47.5622 14.8241C49.8022 13.4428 52.3409 12.7521 55.1782 12.7521C57.4556 12.7521 59.4902 13.1441 61.2822 13.9281C63.0742 14.7121 64.5862 15.7948 65.8182 17.1761C67.0502 18.5201 67.9836 20.0695 68.6182 21.8241C69.2902 23.5788 69.6262 25.4455 69.6262 27.4241C69.6262 27.9095 69.6076 28.4135 69.5702 28.9361C69.5532 29.1739 69.5285 29.4039 69.4961 29.6262C69.4299 30.0803 69.0243 30.3921 68.5654 30.3921H46.2102C45.6579 30.3921 45.2102 29.9444 45.2102 29.3921V26.3521C45.2102 25.7998 45.6579 25.3521 46.2102 25.3521H63.7577C64.4042 25.3521 64.6806 26.1734 64.1658 26.5643C63.6699 26.9408 62.9314 26.4924 62.9439 25.8699C62.9664 24.7483 62.7672 23.7171 62.3462 22.7761C61.7489 21.3201 60.8156 20.1815 59.5462 19.3601C58.3142 18.5015 56.8582 18.0721 55.1782 18.0721C53.4982 18.0721 52.0049 18.5015 50.6982 19.3601C49.3916 20.1815 48.3836 21.3761 47.6742 22.9441C46.9734 24.4564 46.6917 26.2966 46.829 28.4647C46.8323 28.5174 46.8317 28.5708 46.8272 28.6234C46.6548 30.6436 46.9372 32.4092 47.6742 33.9201C48.4582 35.4508 49.5409 36.6455 50.9222 37.5041C52.3409 38.3628 53.9462 38.7921 55.7382 38.7921C57.3193 38.7921 58.6913 38.4853 59.854 37.8718C60.1885 37.6953 60.5921 37.6811 60.9181 37.8727L64.647 40.0639C65.2282 40.4054 65.31 41.2123 64.765 41.609C63.7621 42.3389 62.6199 42.9493 61.3382 43.4401C59.6209 44.0748 57.7356 44.3921 55.6822 44.3921Z" fill="#313E4A"/>
<path d="M85.61 44.3921C83.3326 44.3921 81.3353 43.8881 79.618 42.8801C77.9006 41.8348 76.5566 40.3975 75.586 38.5681C74.6526 36.7015 74.186 34.5548 74.186 32.1281V14.4241C74.186 13.8718 74.6337 13.4241 75.186 13.4241H79.514C80.0663 13.4241 80.514 13.8718 80.514 14.4241V31.5681C80.514 32.9495 80.794 34.1628 81.354 35.2081C81.914 36.2535 82.698 37.0748 83.706 37.6721C84.714 38.2321 85.8713 38.5121 87.178 38.5121C88.522 38.5121 89.698 38.2135 90.706 37.6161C91.714 37.0188 92.498 36.1788 93.058 35.0961C93.6553 34.0135 93.954 32.7441 93.954 31.2881V14.4241C93.954 13.8718 94.4017 13.4241 94.954 13.4241H99.226C99.7783 13.4241 100.226 13.8718 100.226 14.4241V42.7201C100.226 43.2724 99.7783 43.7201 99.226 43.7201H95.234C94.6817 43.7201 94.234 43.2724 94.234 42.7201V38.6307C94.234 38.34 94.5957 38.2062 94.7849 38.4269C94.8595 38.514 94.881 38.635 94.8383 38.7414C94.1229 40.524 92.9695 41.9035 91.378 42.8801C89.7353 43.8881 87.8126 44.3921 85.61 44.3921Z" fill="#313E4A"/>
<path d="M108.303 43.1196C107.665 43.7238 106.614 43.272 106.614 42.3939V14.4241C106.614 13.8718 107.062 13.4241 107.614 13.4241H111.662C112.215 13.4241 112.662 13.8718 112.662 14.4241V18.5981C112.662 18.8661 112.312 18.9667 112.17 18.7394C112.127 18.6715 112.117 18.5878 112.144 18.5123C112.819 16.5961 113.887 15.2174 115.35 14.3761C116.844 13.4801 118.636 13.0321 120.726 13.0321H121.574C122.127 13.0321 122.574 13.4798 122.574 14.0321V17.8001C122.574 18.3524 122.127 18.8001 121.574 18.8001H119.942C117.852 18.8001 116.153 19.4535 114.846 20.7601C113.577 22.0295 112.942 23.8588 112.942 26.2481V38.2902C112.942 38.5647 112.83 38.8271 112.631 39.0159L108.303 43.1196Z" fill="#313E4A"/>
<path d="M139.52 44.3921C136.608 44.3921 133.938 43.7015 131.512 42.3201C129.122 40.9388 127.218 39.0535 125.8 36.6641C124.381 34.2748 123.672 31.5681 123.672 28.5441C123.672 25.4828 124.381 22.7761 125.8 20.4241C127.218 18.0348 129.122 16.1681 131.512 14.8241C133.901 13.4428 136.57 12.7521 139.52 12.7521C142.506 12.7521 145.176 13.4428 147.528 14.8241C149.917 16.1681 151.802 18.0348 153.184 20.4241C154.602 22.7761 155.312 25.4828 155.312 28.5441C155.312 31.6055 154.602 34.3308 153.184 36.7201C151.765 39.1095 149.861 40.9948 147.472 42.3761C145.082 43.7201 142.432 44.3921 139.52 44.3921ZM139.52 38.5121C141.312 38.5121 142.898 38.0828 144.28 37.2241C145.661 36.3655 146.744 35.1895 147.528 33.6961C148.349 32.1655 148.76 30.4481 148.76 28.5441C148.76 26.6401 148.349 24.9415 147.528 23.4481C146.744 21.9548 145.661 20.7788 144.28 19.9201C142.898 19.0615 141.312 18.6321 139.52 18.6321C137.765 18.6321 136.178 19.0615 134.76 19.9201C133.378 20.7788 132.277 21.9548 131.456 23.4481C130.672 24.9415 130.28 26.6401 130.28 28.5441C130.28 30.4481 130.672 32.1655 131.456 33.6961C132.277 35.1895 133.378 36.3655 134.76 37.2241C136.178 38.0828 137.765 38.5121 139.52 38.5121Z" fill="#313E4A"/>
<path d="M163.462 39.0204C163.224 38.8307 163.085 38.5428 163.085 38.2384V11.8561C163.085 9.57879 163.552 7.67479 164.485 6.14413C165.418 4.57612 166.706 3.38146 168.349 2.56013C170.029 1.73879 171.952 1.32812 174.117 1.32812C174.528 1.32812 174.994 1.36546 175.517 1.44012C175.831 1.46256 176.473 1.49174 177.008 1.52765C177.475 1.55905 177.805 1.9416 177.805 2.4103V5.81535C177.805 6.46592 177.179 7.02285 176.529 7.00026C176.219 6.9895 175.939 6.98413 175.797 6.98413C175.424 6.94679 175.125 6.92813 174.901 6.92813C173.221 6.92813 171.877 7.32013 170.869 8.10412C169.861 8.85079 169.357 10.1015 169.357 11.8561V12.4241C169.357 12.9764 169.805 13.4241 170.357 13.4241H176.301C176.853 13.4241 177.301 13.8718 177.301 14.4241V18.1361C177.301 18.6884 176.853 19.1361 176.301 19.1361H170.357C169.805 19.1361 169.357 19.5838 169.357 20.1361V41.6441C169.357 42.4818 168.389 42.9482 167.734 42.426L163.462 39.0204Z" fill="#313E4A"/>
<path d="M190.397 44.3921C188.344 44.3921 186.533 44.0375 184.965 43.3281C183.435 42.5815 182.24 41.5735 181.381 40.3041C180.523 38.9975 180.093 37.4668 180.093 35.7121C180.093 34.0695 180.448 32.5948 181.157 31.2881C181.904 29.9815 183.043 28.8801 184.573 27.9841C186.104 27.0881 188.027 26.4535 190.341 26.0801L199.707 24.5358C200.316 24.4354 200.869 24.9053 200.869 25.5225V28.4877C200.869 28.9736 200.52 29.3891 200.041 29.4728L191.573 30.9521C189.893 31.2508 188.661 31.7921 187.877 32.5761C187.093 33.3228 186.701 34.2935 186.701 35.4881C186.701 36.6455 187.131 37.5975 187.989 38.3441C188.885 39.0535 190.024 39.4081 191.405 39.4081C193.123 39.4081 194.616 39.0348 195.885 38.2881C197.192 37.5415 198.2 36.5521 198.909 35.3201C199.619 34.0508 199.973 32.6508 199.973 31.1201V23.3361C199.973 21.8428 199.413 20.6295 198.293 19.6961C197.211 18.7255 195.755 18.2401 193.925 18.2401C192.245 18.2401 190.771 18.6881 189.501 19.5841C188.562 20.2386 187.808 21.0449 187.237 22.003C186.944 22.4963 186.325 22.7281 185.812 22.4714L182.299 20.7147C181.841 20.4859 181.625 19.9454 181.849 19.4854C182.412 18.3315 183.208 17.3004 184.237 16.3921C185.507 15.2348 186.981 14.3388 188.661 13.7041C190.379 13.0695 192.189 12.7521 194.093 12.7521C196.483 12.7521 198.592 13.2001 200.421 14.0961C202.288 14.9921 203.725 16.2428 204.733 17.8481C205.779 19.4161 206.301 21.2455 206.301 23.3361V42.7201C206.301 43.2724 205.854 43.7201 205.301 43.7201H201.253C200.701 43.7201 200.253 43.2724 200.253 42.7201V38.7934C200.253 38.4959 200.515 38.2663 200.81 38.3047C201.158 38.3502 201.348 38.7347 201.153 39.0271C200.508 39.9968 199.723 40.8518 198.797 41.5921C197.715 42.4881 196.464 43.1788 195.045 43.6641C193.664 44.1495 192.115 44.3921 190.397 44.3921Z" fill="#313E4A"/>
<path d="M213.7 43.7201C213.148 43.7201 212.7 43.2724 212.7 42.7201V14.4241C212.7 13.8718 213.148 13.4241 213.7 13.4241H217.748C218.301 13.4241 218.748 13.8718 218.748 14.4241V18.5981C218.748 18.8661 218.398 18.9667 218.255 18.7394C218.213 18.6715 218.203 18.5878 218.23 18.5123C218.905 16.5961 219.973 15.2174 221.436 14.3761C222.93 13.4801 224.722 13.0321 226.812 13.0321H227.66C228.213 13.0321 228.66 13.4798 228.66 14.0321V17.8001C228.66 18.3524 228.213 18.8001 227.66 18.8001H226.028C223.938 18.8001 222.239 19.4535 220.932 20.7601C219.663 22.0295 219.028 23.8588 219.028 26.2481V42.7201C219.028 43.2724 218.581 43.7201 218.028 43.7201H213.7Z" fill="#313E4A"/>
<path d="M246.213 44.3921C243.189 44.3921 240.501 43.7015 238.149 42.3201C235.835 40.9015 234.024 38.9975 232.717 36.6081C231.411 34.1815 230.757 31.4748 230.757 28.4881C230.757 25.4268 231.411 22.7201 232.717 20.3681C234.061 18.0161 235.853 16.1681 238.093 14.8241C240.333 13.4428 242.872 12.7521 245.709 12.7521C247.987 12.7521 250.021 13.1441 251.813 13.9281C253.605 14.7121 255.117 15.7948 256.349 17.1761C257.581 18.5201 258.515 20.0695 259.149 21.8241C259.821 23.5788 260.157 25.4455 260.157 27.4241C260.157 27.9095 260.139 28.4135 260.101 28.9361C260.085 29.1739 260.06 29.4039 260.027 29.6262C259.961 30.0803 259.556 30.3921 259.097 30.3921H236.741C236.189 30.3921 235.741 29.9444 235.741 29.3921V26.3521C235.741 25.7998 236.189 25.3521 236.741 25.3521H254.289C254.935 25.3521 255.212 26.1734 254.697 26.5643C254.201 26.9408 253.463 26.4924 253.475 25.8699C253.498 24.7483 253.298 23.7171 252.877 22.7761C252.28 21.3201 251.347 20.1815 250.077 19.3601C248.845 18.5015 247.389 18.0721 245.709 18.0721C244.029 18.0721 242.536 18.5015 241.229 19.3601C239.923 20.1815 238.915 21.3761 238.205 22.9441C237.505 24.4564 237.223 26.2966 237.36 28.4647C237.364 28.5174 237.363 28.5708 237.358 28.6234C237.186 30.6436 237.468 32.4092 238.205 33.9201C238.989 35.4508 240.072 36.6455 241.453 37.5041C242.872 38.3628 244.477 38.7921 246.269 38.7921C247.851 38.7921 249.223 38.4853 250.385 37.8718C250.72 37.6953 251.123 37.6811 251.449 37.8727L255.178 40.0639C255.759 40.4054 255.841 41.2123 255.296 41.609C254.293 42.3389 253.151 42.9493 251.869 43.4401C250.152 44.0748 248.267 44.3921 246.213 44.3921Z" fill="#313E4A"/>
<path d="M7.28378 26.5C6.46865 17.8443 8.70822 16.9053 13.6543 23.5L5.70575 11.5L7.28378 26.5Z" fill="#313E4A"/>
<path d="M28.8838 20.8346C29.6989 29.4902 26.946 29.9478 22 23.3531L30.3604 35.7256L28.8838 20.8346Z" fill="#313E4A"/>
<path d="M169.3 25.1C169.3 20.8523 171.227 19.1 175.3 19.1H169.3V25.1Z" fill="#313E4A"/>
<path d="M156.072 43.1125C156.876 42.0503 158.407 41.6733 159.636 42.3132C160.875 42.959 161.484 44.5572 160.538 45.8343C158.373 48.7592 155.494 51.1926 152.125 52.9469C148.28 54.9492 143.926 56 139.5 56C135.074 56 130.72 54.9492 126.875 52.9469C123.506 51.1926 120.627 48.7592 118.462 45.8343C117.516 44.5572 118.125 42.959 119.364 42.3132C120.593 41.6733 122.124 42.0503 122.928 43.1125C124.608 45.3355 126.833 47.204 129.447 48.5656C132.497 50.1539 135.965 50.9929 139.5 50.9929C143.035 50.9929 146.503 50.1539 149.553 48.5656C152.167 47.204 154.392 45.3355 156.072 43.1125Z" fill="#4F836D"/>
<path d="M158.645 44.2242C158.361 44.0764 157.968 44.1734 157.786 44.4124C155.905 46.9014 153.429 48.9742 150.544 50.4765C147.18 52.2285 143.371 53.1468 139.5 53.1468C135.629 53.1468 131.82 52.2285 128.456 50.4765C125.571 48.9742 123.095 46.9014 121.214 44.4124C121.032 44.1734 120.639 44.0764 120.355 44.2242C120.222 44.2937 120.173 44.3814 120.16 44.4282C120.153 44.4518 120.153 44.4701 120.156 44.4839C120.158 44.4966 120.165 44.5194 120.188 44.5512C122.15 47.2018 124.773 49.4254 127.866 51.036C131.397 52.8749 135.41 53.8461 139.5 53.8461C143.59 53.8461 147.603 52.8749 151.134 51.036C154.227 49.4254 156.85 47.2018 158.812 44.5512C158.835 44.5194 158.842 44.4966 158.844 44.4839M156.072 43.1125C156.876 42.0503 158.407 41.6733 159.636 42.3132C160.875 42.959 161.484 44.5572 160.538 45.8343C158.373 48.7592 155.494 51.1926 152.125 52.9469C148.28 54.9492 143.926 56 139.5 56C135.074 56 130.72 54.9492 126.875 52.9469C123.506 51.1926 120.627 48.7592 118.462 45.8343C117.516 44.5572 118.125 42.959 119.364 42.3132C120.593 41.6733 122.124 42.0503 122.928 43.1125C124.608 45.3355 126.833 47.204 129.447 48.5656C132.497 50.1539 135.965 50.9929 139.5 50.9929C143.035 50.9929 146.503 50.1539 149.553 48.5656C152.167 47.204 154.392 45.3355 156.072 43.1125Z" stroke="#4F836D"/>
</svg>
